<svg width="30" height="30" viewBox="0 0 30 30" fill="none" xmlns="http://www.w3.org/2000/svg">
<g id="fluent:shield-video-24-filled">
<g id="Group">
<path id="Vector" d="M4.18292 9.03439C4.15963 8.81389 4.22489 8.59317 4.36434 8.42079C4.50379 8.24841 4.70601 8.13848 4.92651 8.1152C7.8785 7.80343 10.6447 6.45429 13.2393 4.04274C13.3718 3.91961 13.5407 3.84278 13.7206 3.82378C13.9005 3.80478 14.0817 3.84464 14.237 3.93737C17.2781 5.75372 20.2651 6.49525 23.2171 6.18348C23.4376 6.1602 23.6583 6.22545 23.8307 6.3649C24.0031 6.50435 24.113 6.70657 24.1363 6.92707L24.7509 12.7468C24.7721 12.9474 24.7886 13.1463 24.8007 13.3457C24.2021 12.8561 23.4715 12.5555 22.7016 12.482C21.9318 12.4086 21.1575 12.5655 20.4771 12.933C19.7966 13.3005 19.2407 13.8619 18.88 14.5459C18.5193 15.2299 18.3699 16.0057 18.451 16.7748L18.4569 16.8302C17.8444 17.0241 17.3177 17.4236 16.966 17.9612C16.6143 18.4988 16.4591 19.1414 16.5267 19.7802L17.112 25.3228C17.1179 25.3783 17.1246 25.4314 17.1336 25.4842C16.8819 25.6274 16.6254 25.7666 16.3597 25.9045C16.1722 26.002 15.9548 26.025 15.7511 25.9687C9.09229 24.1253 5.38293 20.3967 4.79756 14.8541L4.18292 9.03439ZM19.6766 17.7662L19.5595 16.6577C19.4819 15.9227 19.6994 15.187 20.1643 14.6124C20.6291 14.0378 21.3032 13.6714 22.0382 13.5937C22.7731 13.5161 23.5089 13.7336 24.0835 14.1985C24.6581 14.6633 25.0245 15.3374 25.1021 16.0724L25.2192 17.1809L25.7735 17.1223C26.2145 17.0758 26.6559 17.2063 27.0007 17.4852C27.3454 17.7641 27.5653 18.1685 27.6119 18.6095L28.1972 24.1521C28.2438 24.5931 28.1133 25.0345 27.8344 25.3793C27.5555 25.7241 27.1511 25.9439 26.7101 25.9905L20.0589 26.6929C19.6179 26.7395 19.1765 26.609 18.8317 26.3301C18.487 26.0512 18.2671 25.6468 18.2206 25.2058L17.6352 19.6632C17.5886 19.2222 17.7191 18.7807 17.998 18.436C18.2769 18.0912 18.6814 17.8714 19.1224 17.8248L19.6766 17.7662ZM21.2223 16.4821L21.3394 17.5906L23.5564 17.3565L23.4394 16.248C23.4083 15.954 23.2617 15.6843 23.0319 15.4984C22.8021 15.3125 22.5078 15.2255 22.2138 15.2565C21.9198 15.2876 21.6501 15.4341 21.4642 15.664C21.2783 15.8938 21.1913 16.1881 21.2223 16.4821ZM24.0247 21.7906C23.9937 21.4966 23.8471 21.2269 23.6173 21.041C23.3874 20.8551 23.0931 20.7681 22.7991 20.7991C22.5051 20.8302 22.2355 20.9767 22.0496 21.2066C21.8636 21.4364 21.7766 21.7307 21.8077 22.0247C21.8387 22.3187 21.9853 22.5883 22.2151 22.7743C22.445 22.9602 22.7393 23.0472 23.0333 23.0162C23.3273 22.9851 23.5969 22.8385 23.7828 22.6087C23.9688 22.3789 24.0558 22.0846 24.0247 21.7906Z" fill="#4ADE80"/>
</g>
</g>
</svg>
