<svg width="25" height="24" viewBox="0 0 25 24" fill="none" xmlns="http://www.w3.org/2000/svg">
<g id="search 1" clip-path="url(#clip0_420_1308)">
<path id="Vector" d="M6.04676 14.4181L5.23983 17.4305L2.29054 17.4929C1.40913 15.8581 0.90918 13.9876 0.90918 12C0.90918 10.0779 1.37662 8.2654 2.20519 6.66943H2.20582L4.83152 7.15082L5.98174 9.76077C5.741 10.4626 5.60979 11.216 5.60979 12C5.60988 12.8508 5.764 13.666 6.04676 14.4181Z" fill="#FBBB00"/>
<path id="Vector_2" d="M23.8884 9.83447C24.0216 10.5356 24.091 11.2597 24.091 11.9998C24.091 12.8296 24.0037 13.6391 23.8375 14.4199C23.2733 17.0769 21.7989 19.397 19.7565 21.0388L19.7559 21.0382L16.4487 20.8694L15.9806 17.9475C17.3358 17.1527 18.3949 15.9089 18.9528 14.4199H12.7549V9.83447H19.0433H23.8884Z" fill="#518EF8"/>
<path id="Vector_3" d="M19.7554 21.0386L19.756 21.0393C17.7697 22.6359 15.2464 23.5912 12.4996 23.5912C8.0855 23.5912 4.24777 21.124 2.29004 17.4932L6.04626 14.4185C7.02511 17.0308 9.54518 18.8905 12.4996 18.8905C13.7695 18.8905 14.9592 18.5472 15.98 17.9479L19.7554 21.0386Z" fill="#28B446"/>
<path id="Vector_4" d="M19.8984 3.07762L16.1435 6.15175C15.0869 5.49134 13.838 5.10984 12.5 5.10984C9.47869 5.10984 6.91148 7.0548 5.98168 9.76087L2.20571 6.66954H2.20508C4.13415 2.95026 8.02027 0.40918 12.5 0.40918C15.3124 0.40918 17.891 1.41098 19.8984 3.07762Z" fill="#F14336"/>
</g>
<defs>
<clipPath id="clip0_420_1308">
<rect width="23.1818" height="23.1818" fill="white" transform="translate(0.90918 0.40918)"/>
</clipPath>
</defs>
</svg>
