<svg width="44" height="44" viewBox="0 0 44 44" fill="none" xmlns="http://www.w3.org/2000/svg">
<g id="pepicons:lock-closed-print">
<g id="Group">
<path id="Vector" opacity="0.8" fill-rule="evenodd" clip-rule="evenodd" d="M17.5999 21.2191V14.3001C17.5999 12.2579 18.4111 10.2994 19.8551 8.85538C21.2992 7.41135 23.2577 6.6001 25.2999 6.6001C27.342 6.6001 29.3005 7.41135 30.7446 8.85538C32.1886 10.2994 32.9999 12.2579 32.9999 14.3001V21.2191C36.1811 22.1651 38.4999 25.1131 38.4999 28.6001V35.2001C38.4999 37.2423 37.6886 39.2008 36.2446 40.6448C34.8005 42.0888 32.842 42.9001 30.7999 42.9001H19.7999C17.7577 42.9001 15.7992 42.0888 14.3551 40.6448C12.9111 39.2008 12.0999 37.2423 12.0999 35.2001V28.6001C12.1001 26.9417 12.6355 25.3277 13.6264 23.9979C14.6173 22.6682 16.0108 21.6936 17.5999 21.2191ZM20.8999 20.9001V14.3001C20.8999 13.1331 21.3634 12.014 22.1886 11.1888C23.0137 10.3637 24.1329 9.9001 25.2999 9.9001C26.4668 9.9001 27.586 10.3637 28.4111 11.1888C29.2363 12.014 29.6999 13.1331 29.6999 14.3001V20.9001H20.8999Z" fill="#97EDFF"/>
<path id="Vector_2" fill-rule="evenodd" clip-rule="evenodd" d="M16.5 27.5001C16.5 28.6671 16.9636 29.7862 17.7887 30.6114C18.6139 31.4365 19.733 31.9001 20.9 31.9001C22.067 31.9001 23.1861 31.4365 24.0113 30.6114C24.8364 29.7862 25.3 28.6671 25.3 27.5001C25.3 26.3331 24.8364 25.214 24.0113 24.3888C23.1861 23.5637 22.067 23.1001 20.9 23.1001C19.733 23.1001 18.6139 23.5637 17.7887 24.3888C16.9636 25.214 16.5 26.3331 16.5 27.5001ZM23.1 27.5001C23.1 28.0836 22.8682 28.6432 22.4556 29.0557C22.0431 29.4683 21.4835 29.7001 20.9 29.7001C20.3165 29.7001 19.7569 29.4683 19.3444 29.0557C18.9318 28.6432 18.7 28.0836 18.7 27.5001C18.7 26.9166 18.9318 26.357 19.3444 25.9445C19.7569 25.5319 20.3165 25.3001 20.9 25.3001C21.4835 25.3001 22.0431 25.5319 22.4556 25.9445C22.8682 26.357 23.1 26.9166 23.1 27.5001Z" fill="#0A6375"/>
<path id="Vector_3" fill-rule="evenodd" clip-rule="evenodd" d="M26.3999 16.5H15.3999C13.3578 16.5 11.3993 17.3112 9.95523 18.7553C8.5112 20.1993 7.69995 22.1578 7.69995 24.2V30.8C7.69995 32.8422 8.5112 34.8007 9.95523 36.2447C11.3993 37.6888 13.3578 38.5 15.3999 38.5H26.3999C28.4421 38.5 30.4006 37.6888 31.8447 36.2447C33.2887 34.8007 34.0999 32.8422 34.0999 30.8V24.2C34.0999 22.1578 33.2887 20.1993 31.8447 18.7553C30.4006 17.3112 28.4421 16.5 26.3999 16.5ZM9.89995 24.2C9.89995 22.7413 10.4794 21.3424 11.5109 20.3109C12.5423 19.2795 13.9413 18.7 15.3999 18.7H26.3999C27.8586 18.7 29.2576 19.2795 30.289 20.3109C31.3205 21.3424 31.8999 22.7413 31.8999 24.2V30.8C31.8999 32.2587 31.3205 33.6576 30.289 34.6891C29.2576 35.7205 27.8586 36.3 26.3999 36.3H15.3999C13.9413 36.3 12.5423 35.7205 11.5109 34.6891C10.4794 33.6576 9.89995 32.2587 9.89995 30.8V24.2Z" fill="#0A6375"/>
<path id="Vector_4" d="M15.4 17.6002C15.4 17.8919 15.2841 18.1717 15.0778 18.378C14.8715 18.5843 14.5917 18.7002 14.3 18.7002C14.0082 18.7002 13.7284 18.5843 13.5221 18.378C13.3158 18.1717 13.2 17.8919 13.2 17.6002V9.9002C13.2 8.88902 13.3991 7.88774 13.7861 6.95353C14.173 6.01933 14.7402 5.17048 15.4552 4.45547C16.1702 3.74046 17.0191 3.17328 17.9533 2.78632C18.8875 2.39936 19.8888 2.2002 20.8999 2.2002C21.9111 2.2002 22.9124 2.39936 23.8466 2.78632C24.7808 3.17328 25.6297 3.74046 26.3447 4.45547C27.0597 5.17048 27.6269 6.01933 28.0138 6.95353C28.4008 7.88774 28.5999 8.88902 28.5999 9.9002V17.6002C28.5999 17.8919 28.4841 18.1717 28.2778 18.378C28.0715 18.5843 27.7917 18.7002 27.4999 18.7002C27.2082 18.7002 26.9284 18.5843 26.7221 18.378C26.5158 18.1717 26.3999 17.8919 26.3999 17.6002V9.9002C26.3999 8.44151 25.8205 7.04256 24.789 6.01111C23.7576 4.97966 22.3586 4.4002 20.8999 4.4002C19.4413 4.4002 18.0423 4.97966 17.0109 6.01111C15.9794 7.04256 15.4 8.44151 15.4 9.9002V17.6002Z" fill="#0A6375"/>
</g>
</g>
</svg>
