<svg width="40" height="40" viewBox="0 0 40 40" fill="none" xmlns="http://www.w3.org/2000/svg">
<g id="pepicons:person-print">
<g id="Group">
<g id="Group_2" opacity="0.8">
<path id="Vector" opacity="0.8" d="M24 20C24.9193 20 25.8295 19.8189 26.6788 19.4672C27.5281 19.1154 28.2997 18.5998 28.9497 17.9497C29.5998 17.2997 30.1154 16.5281 30.4672 15.6788C30.8189 14.8295 31 13.9193 31 13C31 12.0807 30.8189 11.1705 30.4672 10.3212C30.1154 9.47194 29.5998 8.70026 28.9497 8.05025C28.2997 7.40024 27.5281 6.88463 26.6788 6.53284C25.8295 6.18106 24.9193 6 24 6C22.1435 6 20.363 6.7375 19.0503 8.05025C17.7375 9.36301 17 11.1435 17 13C17 14.8565 17.7375 16.637 19.0503 17.9497C20.363 19.2625 22.1435 20 24 20Z" fill="#97EDFF"/>
<path id="Vector_2" opacity="0.8" fill-rule="evenodd" clip-rule="evenodd" d="M37 33.376C37 26.196 31.18 21 24 21C16.82 21 11 26.196 11 33.376L11.004 37C11.004 37.5304 11.2147 38.0391 11.5898 38.4142C11.9649 38.7893 12.4736 39 13.004 39H35C35.5304 39 36.0391 38.7893 36.4142 38.4142C36.7893 38.0391 37 37.5304 37 37V33.374V33.376Z" fill="#97EDFF"/>
</g>
<path id="Vector_3" fill-rule="evenodd" clip-rule="evenodd" d="M15 12C15 10.6739 15.5268 9.40215 16.4645 8.46447C17.4021 7.52678 18.6739 7 20 7C21.3261 7 22.5979 7.52678 23.5355 8.46447C24.4732 9.40215 25 10.6739 25 12C25 13.3261 24.4732 14.5979 23.5355 15.5355C22.5979 16.4732 21.3261 17 20 17C18.6739 17 17.4021 16.4732 16.4645 15.5355C15.5268 14.5979 15 13.3261 15 12ZM20 5C19.0807 5 18.1705 5.18106 17.3212 5.53284C16.4719 5.88463 15.7003 6.40024 15.0503 7.05025C14.4002 7.70026 13.8846 8.47194 13.5328 9.32122C13.1811 10.1705 13 11.0807 13 12C13 12.9193 13.1811 13.8295 13.5328 14.6788C13.8846 15.5281 14.4002 16.2997 15.0503 16.9497C15.7003 17.5998 16.4719 18.1154 17.3212 18.4672C18.1705 18.8189 19.0807 19 20 19C21.8565 19 23.637 18.2625 24.9497 16.9497C26.2625 15.637 27 13.8565 27 12C27 10.1435 26.2625 8.36301 24.9497 7.05025C23.637 5.7375 21.8565 5 20 5ZM20.032 19C13.022 19 7 24.16 7 31L7.004 36C7.004 36.2652 7.10936 36.5196 7.29689 36.7071C7.48443 36.8946 7.73878 37 8.004 37C8.26922 37 8.52357 36.8946 8.71111 36.7071C8.89864 36.5196 9.004 36.2652 9.004 36L9 31C9 25.45 13.928 21 20.032 21C26.13 21 31 25.444 31 31V36C31 36.2652 31.1054 36.5196 31.2929 36.7071C31.4804 36.8946 31.7348 37 32 37C32.2652 37 32.5196 36.8946 32.7071 36.7071C32.8946 36.5196 33 36.2652 33 36V31C33 24.166 27.05 19 20.032 19Z" fill="#0A6375"/>
</g>
</g>
</svg>
